<svg width="24" height="24" viewBox="0 0 24 24" fill="none" xmlns="http://www.w3.org/2000/svg">
<path d="M12.0711 13.3139L17.0211 8.36388C17.1134 8.26837 17.2237 8.19219 17.3457 8.13978C17.4677 8.08737 17.599 8.05979 17.7317 8.05863C17.8645 8.05748 17.9962 8.08278 18.1191 8.13306C18.242 8.18334 18.3536 8.25759 18.4475 8.35149C18.5414 8.44538 18.6157 8.55703 18.666 8.67993C18.7162 8.80282 18.7415 8.9345 18.7404 9.06728C18.7392 9.20006 18.7117 9.33128 18.6592 9.45329C18.6068 9.57529 18.5307 9.68564 18.4351 9.77788L12.7781 15.4349C12.5906 15.6224 12.3363 15.7277 12.0711 15.7277C11.806 15.7277 11.5517 15.6224 11.3641 15.4349L5.70714 9.77788C5.61163 9.68564 5.53545 9.57529 5.48304 9.45329C5.43063 9.33128 5.40305 9.20006 5.40189 9.06728C5.40074 8.9345 5.42604 8.80282 5.47632 8.67993C5.5266 8.55703 5.60086 8.44538 5.69475 8.35149C5.78864 8.25759 5.90029 8.18334 6.02319 8.13306C6.14609 8.08278 6.27777 8.05748 6.41054 8.05863C6.54332 8.05979 6.67454 8.08737 6.79655 8.13978C6.91855 8.19219 7.0289 8.26837 7.12114 8.36388L12.0711 13.3139Z" fill="#21272A"/>
</svg>
