<svg width="17" height="21" viewBox="0 0 17 21" fill="none" xmlns="http://www.w3.org/2000/svg">
<path d="M13.623 11.127C13.598 8.594 15.689 7.379 15.782 7.319C14.607 5.599 12.777 5.364 12.125 5.337C10.568 5.179 9.08601 6.254 8.29501 6.254C7.50701 6.254 6.28701 5.36 4.99501 5.384C3.29901 5.409 1.73401 6.37 0.860013 7.89C-0.903987 10.95 0.408013 15.485 2.12701 17.967C2.96701 19.182 3.96901 20.547 5.28401 20.497C6.55001 20.447 7.02901 19.678 8.56001 19.678C10.091 19.678 10.522 20.498 11.862 20.473C13.225 20.447 14.088 19.234 14.922 18.016C15.887 16.606 16.284 15.241 16.308 15.171C16.278 15.158 13.65 14.151 13.624 11.126L13.623 11.127ZM11.105 3.694C11.803 2.847 12.274 1.672 12.145 0.5C11.14 0.54 9.92101 1.17 9.20001 2.015C8.55301 2.765 7.98601 3.96 8.13801 5.109C9.26001 5.197 10.406 4.539 11.105 3.694Z" fill="#458FF6"/>
</svg>
