<svg width="21" height="21" viewBox="0 0 21 21" fill="none" xmlns="http://www.w3.org/2000/svg">
<path d="M4.87568 8.568C4.66293 9.18988 4.55479 9.84274 4.55568 10.5C4.55568 11.234 4.68768 11.937 4.93168 12.586C5.23579 13.3972 5.71347 14.1321 6.33131 14.7393C6.94915 15.3466 7.69222 15.8115 8.50853 16.1015C9.32484 16.3916 10.1947 16.4998 11.0571 16.4185C11.9196 16.3372 12.7539 16.0684 13.5017 15.631H13.5027C14.6807 14.9404 15.5859 13.8661 16.0667 12.588H10.7197V8.632H20.3247C20.5731 9.94049 20.5581 11.2854 20.2807 12.588C19.7999 14.8399 18.5565 16.8568 16.7607 18.298C14.9869 19.7264 12.7771 20.5035 10.4997 20.5C8.78265 20.501 7.0943 20.0597 5.59731 19.2187C4.10032 18.3778 2.84513 17.1655 1.95269 15.6986C1.06024 14.2317 0.560611 12.5597 0.501934 10.8437C0.443258 9.12764 0.827512 7.42542 1.61768 5.901C2.46065 4.27291 3.73506 2.90796 5.30155 1.9554C6.86805 1.00284 8.6663 0.499357 10.4997 0.500001C12.9257 0.500001 15.1507 1.364 16.8827 2.802L13.6427 5.454C12.8837 4.98164 12.028 4.68643 11.1392 4.59034C10.2504 4.49424 9.35139 4.59972 8.50898 4.89894C7.66658 5.19816 6.90245 5.68342 6.27342 6.31864C5.64439 6.95386 5.16663 7.7227 4.87568 8.568Z" fill="#458FF6"/>
</svg>
